<?xml version="1.0" encoding="utf-8"?>

<!DOCTYPE svg PUBLIC "-//W3C//DTD SVG 1.1//EN" "http://www.w3.org/Graphics/SVG/1.1/DTD/svg11.dtd">
<svg version="1.1" id="Layer_1" xmlns="http://www.w3.org/2000/svg" xmlns:xlink="http://www.w3.org/1999/xlink" x="0px" y="0px"
	 viewBox="0 0 1920 1920" enable-background="new 0 0 1920 1920" xml:space="preserve">
<g>
	<path fill="#4FCAF4" d="M917.27,78.48c104.63-4.96,210.16,8.46,310.02,40.23c76.0599,24.1,148.7799,58.72,215.5399,102.42
		c126.05,82.33,230.55,197.35,300.1801,330.86c41.6799,79.56,70.97,165.58,86.58,254.03c8,45.88,12.76,92.38,13.1901,138.97
		c0.8199,9.97,0.76,20.03-0.03,30.01c-0.1801,44.59-4.64,89.08-11.85,133.0601c-13.05,77.6799-36.55,153.61-69.8301,225.0199
		C1709.41,1444.2,1634.26,1544.3101,1542.08,1625.04c-98.2899,86.39-216.0199,150.59-342.0199,186.01
		c-69.04,19.49-140.4901,30.38-212.16,32.59c-14.28,0.2-28.56,1.0699-42.84,0.2999c-96.69-1.45-193.16-18.9199-284.17-51.6799
		c-77.18-27.72-150.43-66.35-216.93-114.3201c-122.23-87.8799-221.48-207.4399-285.01-343.95c-40.5-86.65-66.63-179.98-77.06-275.05
		c-4.29-38.4799-5.97-77.2-5.29-115.9099c-0.16-8.69,1.02-17.3101,0.96-26c3.88-80.8,18.95-161.09,44.74-237.79
		c26.12-77.71,63.18-151.74,109.75-219.22c46.2-67.06,101.72-127.68,164.41-179.64c61.88-51.31,130.79-94.16,204.23-126.84
		C700.31,109.03,808.33,83.61,917.27,78.48 M937.82,257.94l0.98,0.48c-7.48,0.14-14.66,2.81-21.93,4.37
		c-31.56,9.18-60.61,26.19-85.1,47.97c-31.26,22.85-55.81,55.26-67.62,92.25c-1.07,3.3-2.1,6.61-2.98,9.97
		c-0.93,3.54-1.73,7.12-2.62,10.67c-1.86,5.38-2.62,11.05-3.2,16.69c-2.22,13.44-1.7,27.1-1.65,40.67
		c1.22,19.77,4.18,39.42,8.81,58.67c0.3,0.4,0.89,1.22,1.19,1.62c1.61,10.15,5.25,19.87,8.06,29.73
		c4.41,13.75,9.61,27.23,14.19,40.92c4.99,15.25,9.93,30.53,14.28,45.99c3.3,10.58,5.61,21.43,8.86,32.03
		c1.68,9.03,4.43,17.8701,5.43,27.04c-0.11,0.59-0.33,1.78-0.44,2.37c0.33-0.07,1-0.2,1.34-0.27c0.13,0.6,0.4,1.8,0.54,2.4
		c-46.32,0.17-92.63,0.02-138.94,0.07c-12.7,0.21-25.44-0.49-38.09,0.75c-5.66,0.24-11.37-0.18-16.95,1.02
		c-17.78,0.86-35.38,3.6801-52.92,6.54c-23.55,4.38-46.84,10.71-68.73,20.53c-12.12,5.73-24.14,11.95-34.59,20.44
		c-18.47,13.51-32.76,34-35.36,57.1c-0.16,7.7-0.29,15.47,0.42,23.13c-0.9,6.25-0.57,12.61-0.35,18.9
		c3.63,27.09,20.15,50.54,39.5,69.03c8.79,9.27,19.21,16.76,29.51,24.23c0.41,20.12,9.44,39.1,21.37,54.93
		c13.29,17.55,29.83,32.4901,47.9,44.98c31.49,21.86,66.7,37.85,102.88,50.23c43.8,15.17,89.37,25.0499,135.37,30.52
		c2.96-0.02,4.95,2.27,6.7,4.35c7.64,9.36,16.66,17.55,26.44,24.64c2.27,1.7,4.14,3.87,5.92,6.08
		c-37.63,17.41-70.41,44.77-95.04,78.05c-25.75,34.99-42.1,76.86-46.74,120.0499c-1.29,11.25-0.85,22.61-0.94,33.92
		c-0.42,31.72,7.67,62.96,19.69,92.13c15.11,34.42,37.91,65.4399,66.26,90.12c0.17,3.64,2.01,6.84,3.37,10.15
		c4.54,10.99,10.38,21.38,16.46,31.58c8.6,14.29,19.28,27.15,30.23,39.6801c25.21,26.76,56.34,47.87,90.54,61.38
		c44.91,17.48,94.97,22.0599,142.16,11.88c36.5499-7.2201,71.03-23.64,100.6699-46.0801c14.6001-11.61,28.55-24.24,40.16-38.9
		c25.0601-29.8799,42.64-65.9199,51.0701-103.97c14.7799-64.6899,2.3899-135.26-34.3-190.63
		c-9.66-14.64-20.5601-28.5299-33.27-40.64c-3.7999-3.37-6.86-7.63-11.25-10.26c-12.42-32.83-31.45-63.4099-56.53-88.0599
		c-5.13-5-10.09-10.21-15.5399-14.87c4.6899-2.62,10-3.6801,15-5.54c34.2799-12.2899,67.26-30.78,91.7-58.23
		c2.21-2.13,4.16-5.22,7.59-5.27c55.8201-5.0399,111.0701-17.11,163.7301-36.35c38.73-14.48,76.5-33.04,108.48-59.59
		c14.87-12.15,27.95-26.59,38-42.98c7.27-12.71,12.77-26.8,13.36-41.58c0.5699-7.35-1.25-14.68-0.3201-22.0099
		c2.0601-16.64-2.72-33.66-11.8999-47.55c-9.55-14.35-22.9601-25.77-37.6801-34.55c-6.1801-3.97-13.0699-6.64-19.2-10.67
		c0.96-7,0.5599-14.11,0.6399-21.15c-1.1299-9.69-4.09-19.19-8.75-27.77c-7.3999-14.22-19.2899-25.51-32.1299-34.84
		c-15.3501-10.77-32.53-18.63-50.17-24.84c-20.3201-6.72-41.22-11.8-62.4301-14.65c-10.21-1.96-20.5499-3.2-30.9199-3.85
		c-9.9401-1.36-19.9701-1.6-29.98-1.71c-25.4701-1.41-51.01-0.42-76.5-0.8c0.2599-5,2.5-9.52,3.99-14.21
		c2.1-6.47,4.5699-12.81,6.62-19.29c7.85-20.78,13.64-42.32,17.88-64.12c7.75-39.95,8.01-82.16-4.91-121.09
		c-3.5-11.36-9.02-21.93-14.47-32.44c-9.53-16.52-21.66-31.45-35.5-44.53c-5.3501-5.17-11.9701-8.93-16.4401-14.99
		c-5.29-18.61-13.4299-36.4-24.37-52.37c-12.0599-17.82-27.41-33.27-44.41-46.38c-5.2-3.79-9.2999-8.82-14.2899-12.86
		c-21.6-19.01-47.59-33.66-75.92-39.49c-4.79-1.58-9.93-1.04-14.81-2.17C962.57,256.01,950.03,255.58,937.82,257.94z"/>
	<path fill="#CCCE9B" d="M937.82,257.94c12.21-2.36,24.75-1.93,37.11-1.3c4.88,1.13,10.02,0.59,14.81,2.17
		c28.33,5.83,54.3201,20.48,75.92,39.49c4.99,4.04,9.09,9.07,14.2899,12.86c17,13.11,32.3501,28.56,44.41,46.38
		c10.9401,15.97,19.08,33.76,24.37,52.37c2.4401,9.82,4.77,19.68,5.86,29.76c2.3301,13.65,1.63,27.55,1.65,41.33
		c-1.22,24.67-5.83,49.09-12.37,72.88c-5.45,20.44-13.34,40.11-19.9301,60.19c-3.36,9.44-5.7799,19.2-9.5,28.52
		c0.05-5.91,2.6201-11.31,4.2401-16.8701c5.58-17.8199,12.1799-35.3,18.11-53c6.9299-21.1,12.3099-42.74,15.45-64.73
		c1.5-5.99,1.02-12.18,1.59-18.26c2.4-13.74,1.9401-27.84,0.0601-41.61c-2.66-40.81-19.42-80.69-47.24-110.75
		c-8.2101-8.51-16.54-16.99-26.14-23.95c-5.59-3.97-9.88-9.41-15.26-13.64c-21.91-19.28-48.31-34.44-77.3-39.58
		c-10.78-2.52-21.91-2.97-32.94-2.68c-5.41,0.11-10.78,1.35-16.21,0.9L937.82,257.94z"/>
	<path fill="#FECF67" d="M938.8,258.42c5.43,0.45,10.8-0.79,16.21-0.9c11.03-0.29,22.16,0.16,32.94,2.68
		c28.99,5.14,55.39,20.3,77.3,39.58c5.38,4.23,9.67,9.67,15.26,13.64c9.6,6.96,17.9299,15.44,26.14,23.95
		c27.8199,30.06,44.58,69.94,47.24,110.75c1.88,13.77,2.34,27.87-0.0601,41.61c-0.5699,6.08-0.09,12.27-1.59,18.26
		c-3.14,21.99-8.52,43.63-15.45,64.73c-5.9301,17.7-12.53,35.1801-18.11,53c-1.62,5.5601-4.1901,10.96-4.2401,16.8701
		c-6.35,21.16-12.2,42.48-17.0199,64.04c-1.3,4.66-1.88,9.46-2.5801,14.24c-0.1,0.33-0.2799,1-0.38,1.34
		c-5.33,22.02-7.8199,44.64-9.99,67.16c-0.89,12.18-1.1899,24.39-1.09,36.61c-0.21,14.25,0.97,28.66-1.8199,42.74
		c-1.8201,7.55-8.17,12.65-14.5801,16.36c-8.12,5.77-19,4.18-27.33,9.45c-8.12,4.85-17.11,7.9399-25.95,11.1899
		c-16.91,5.84-34.73,9.54-52.69,8.94c-22.8,0.6-45.64-4.7-66.18-14.5c-7.91-4.55-17.26-4.78-25.91-7.05
		c-11.48-2.88-23.73-5.25-33.23-12.77c-6.96-5.9901-8.08-15.79-8.97-24.38c-0.56-22.64,0.72-45.35-1.16-67.95
		c-0.16-3.99-0.03-7.99,0.07-11.97c-0.31,2.67-0.63,5.33-0.97,8.01c-0.29-13.8-2.65-27.45-4.77-41.06
		c-1.28-7.17-2.24-14.4-3.93-21.48c-0.14-0.6-0.41-1.8-0.54-2.4c-0.34,0.07-1.01,0.2-1.34,0.27c0.11-0.59,0.33-1.78,0.44-2.37
		c-1-9.17-3.75-18.01-5.43-27.04c-3.25-10.6-5.56-21.45-8.86-32.03c-4.35-15.46-9.29-30.74-14.28-45.99
		c-4.58-13.69-9.78-27.17-14.19-40.92c-2.81-9.86-6.45-19.58-8.06-29.73c-0.37-6.91-2.54-13.53-3.62-20.33
		c-1.26-5.71-1.64-11.55-2.76-17.28c-1.28-6.23-0.4-12.64-1.35-18.9c-1.06-6.73-0.53-13.56-0.71-20.34
		c-0.26-6.52,1.38-12.92,1.21-19.44c-0.23-7.23,3-14.09,2.08-21.36c0.89-3.55,1.69-7.13,2.62-10.67c0.88-3.36,1.91-6.67,2.98-9.97
		c11.81-36.99,36.36-69.4,67.62-92.25c24.49-21.78,53.54-38.79,85.1-47.97C924.14,261.23,931.32,258.56,938.8,258.42 M927.4,288.59
		c-5.21,1.42-9.37,5.14-14.48,6.82c-5.8,1.91-10.76,5.58-16.36,7.95c-5.74,2.34-10.57,6.3-16.05,9.11
		c-7.37,4.06-13.52,9.9-20.65,14.31c-10.03,6.79-18.67,15.38-26.91,24.19c-4.79,6.58-10.83,12.25-14.74,19.45
		c-2.82,4.43-6.38,8.48-8.2,13.48c-1.13,3.16-2.24,6.32-3.54,9.42c-2.46,5.58-2.62,11.76-3.5699,17.7
		c-1.02,5.99-0.08,12.04,1.06,17.94c2.97,16.99,12.87,32.18,25.61,43.54c8.47,6.3,17.17,12.34,26.41,17.48
		c3.59,1.71,7.37,3.03,10.88,4.95c5.34,2.1,10.93,3.49,16.28,5.57c16.78,5.14,34.45,6.64,51.93,6.11
		c16.78,0.55,33.37-3.61,48.75-9.99c4.24-3.35,9.65-4.73,13.73-8.28c7.39-6.67,13.99-14.22,19.22-22.71
		c2.26-3.88,3.41-8.26,5.52-12.22c1.3-2.4,1.56-5.15,2.22-7.75c1.9299-7.37,3.27-14.96,3.1799-22.6
		c-0.0299-9.75,0.51-19.62-1.5-29.23c-0.7599-8.8-2.9099-17.43-5.89-25.73c-1.69-7.31-4.86-14.12-7.27-21.19
		c-3.32-6.01-5.67-12.57-9.85-18.07c-6.01-9.44-14.44-16.92-22.15-24.91c-3.08-3.37-7.72-4.34-11.52-6.62
		c-6.54-3.24-13.14-6.81-20.49-7.76C941.94,288.29,934.5,286.5,927.4,288.59z"/>
	<path fill="#FFE3BB" d="M927.4,288.59c7.1-2.09,14.54-0.3,21.62,0.96c7.35,0.95,13.95,4.52,20.49,7.76
		c3.8,2.28,8.44,3.25,11.52,6.62c7.71,7.99,16.14,15.47,22.15,24.91c4.18,5.5,6.53,12.06,9.85,18.07
		c2.41,7.07,5.58,13.88,7.27,21.19c2.98,8.3,5.1301,16.93,5.89,25.73c2.01,9.61,1.4701,19.48,1.5,29.23
		c0.0901,7.64-1.25,15.23-3.1799,22.6c-0.66,2.6-0.92,5.35-2.22,7.75c-2.11,3.96-3.2599,8.34-5.52,12.22
		c-5.23,8.49-11.83,16.04-19.22,22.71c-4.08,3.55-9.49,4.93-13.73,8.28c-15.38,6.38-31.97,10.54-48.75,9.99
		c-17.48,0.53-35.15-0.97-51.93-6.11c-5.35-2.08-10.94-3.47-16.28-5.57c-3.51-1.92-7.29-3.24-10.88-4.95
		c-9.24-5.14-17.94-11.18-26.41-17.48c-12.74-11.36-22.64-26.55-25.61-43.54c-1.14-5.9-2.08-11.95-1.06-17.94
		c0.95-5.94,1.11-12.12,3.5699-17.7c1.3-3.1,2.41-6.26,3.54-9.42c1.82-5,5.38-9.05,8.2-13.48c3.91-7.2,9.95-12.87,14.74-19.45
		c8.24-8.81,16.88-17.4,26.91-24.19c7.13-4.41,13.28-10.25,20.65-14.31c5.48-2.81,10.31-6.77,16.05-9.11
		c5.6-2.37,10.56-6.04,16.36-7.95C918.03,293.73,922.19,290.01,927.4,288.59z"/>
	<path fill="#5AA6C8" d="M1148.73,409.91c4.47,6.06,11.09,9.82,16.4401,14.99c13.84,13.08,25.97,28.01,35.5,44.53
		c5.45,10.51,10.97,21.08,14.47,32.44c12.92,38.93,12.66,81.14,4.91,121.09c-4.24,21.8-10.03,43.34-17.88,64.12
		c-2.05,6.48-4.52,12.82-6.62,19.29c-1.49,4.69-3.7301,9.21-3.99,14.21c-32.2301,0.55-64.4801,0.02-96.7201,0.29
		c0.7001-4.78,1.28-9.58,2.5801-14.24c4.8199-21.56,10.6699-42.88,17.0199-64.04c3.7201-9.32,6.14-19.08,9.5-28.52
		c6.5901-20.08,14.4801-39.75,19.9301-60.19c6.54-23.79,11.15-48.21,12.37-72.88c-0.02-13.78,0.6801-27.68-1.65-41.33
		C1153.5,429.59,1151.17,419.73,1148.73,409.91z"/>
	<path fill="#C0D7A8" d="M755.35,440.34c0.58-5.64,1.34-11.31,3.2-16.69c0.92,7.27-2.31,14.13-2.08,21.36
		c0.17,6.52-1.47,12.92-1.21,19.44c0.18,6.78-0.35,13.61,0.71,20.34c0.95,6.26,0.07,12.67,1.35,18.9c1.12,5.73,1.5,11.57,2.76,17.28
		c1.08,6.8,3.25,13.42,3.62,20.33c-0.3-0.4-0.89-1.22-1.19-1.62c-4.63-19.25-7.59-38.9-8.81-58.67
		C753.65,467.44,753.13,453.78,755.35,440.34z"/>
	<path fill="#9AAFDC" d="M1094.84,720.87c32.24-0.27,64.49,0.26,96.7201-0.29c25.49,0.38,51.0299-0.61,76.5,0.8
		c10.0099,0.11,20.0399,0.35,29.98,1.71c10.37,0.65,20.71,1.89,30.9199,3.85c21.2101,2.85,42.11,7.93,62.4301,14.65
		c17.64,6.21,34.8199,14.0699,50.17,24.84c12.84,9.33,24.73,20.62,32.1299,34.84c4.66,8.58,7.6201,18.08,8.75,27.77
		c-0.08,7.04,0.3201,14.15-0.6399,21.15c-0.0801,0.59-0.24,1.76-0.3201,2.35c-0.3099-0.53-0.9199-1.58-1.23-2.11
		c-0.15-5.18,1.22-10.25,1.1801-15.41c-0.6101-10.1-2.8101-20.14-7.05-29.36c-6.66-13.83-17.12-25.53-29.26-34.8
		c-13.6801-10.55-29.3-18.2-45.24-24.66c-33.54-12.72-69.21-18.89-104.84-21.76c-9.6901-0.39-19.3301-1.64-29.01-1.93
		c-57.1901-0.29-114.38,0-171.5701-0.3C1094.5601,721.87,1094.74,721.2,1094.84,720.87z"/>
	<path fill="#F38DBC" d="M621.98,723.35c5.58-1.2,11.29-0.78,16.95-1.02c12.65-1.24,25.39-0.54,38.09-0.75
		c46.31-0.05,92.62,0.1,138.94-0.07c1.69,7.08,2.65,14.31,3.93,21.48c2.12,13.61,4.48,27.26,4.77,41.06
		c0.34-2.68,0.66-5.34,0.97-8.01c-0.1,3.98-0.23,7.98-0.07,11.97c1.88,22.6,0.6,45.31,1.16,67.95c0.89,8.59,2.01,18.39,8.97,24.38
		c9.5,7.52,21.75,9.89,33.23,12.77c8.65,2.27,18,2.5,25.91,7.05c20.54,9.8,43.38,15.1,66.18,14.5c17.96,0.6,35.78-3.1,52.69-8.94
		c8.84-3.25,17.83-6.34,25.95-11.1899c8.33-5.27,19.21-3.6801,27.33-9.45c6.41-3.71,12.76-8.81,14.5801-16.36
		c2.7899-14.08,1.61-28.49,1.8199-42.74c-0.1-12.22,0.2-24.43,1.09-36.61c2.17-22.52,4.66-45.14,9.99-67.16
		c57.1901,0.3,114.38,0.0099,171.5701,0.3c9.6799,0.29,19.3199,1.54,29.01,1.93c35.63,2.87,71.2999,9.04,104.84,21.76
		c15.9399,6.46,31.5599,14.11,45.24,24.66c12.14,9.27,22.6,20.97,29.26,34.8c4.24,9.22,6.4399,19.26,7.05,29.36
		c0.0399,5.16-1.3301,10.23-1.1801,15.41c-2.6899,16.26-10.97,31.04-20.72,44.1c-21.92,28.25-51.8201,49.1299-83.2001,65.67
		c-36.98,19.22-76.58,33.06-116.9199,43.31c-43.3301,10.81-87.73,17.45-132.36,19.29c-23,0.78-46.02,0.22-69.02,0.42
		c-82.69-0.06-165.3701,0.04-248.05-0.02c-44.45,0.31-88.82-4.9-132.33-13.84c-44.69-9.54-88.7-23.18-129.94-43.02
		c-24.2-11.67-47.38-25.71-67.9-43.11c-12.62-10.39-23.57-22.73-32.9-36.13c-4.13-6.42-7.69-13.21-10.67-20.23
		c-2.28-5.1-3.2-10.67-5.44-15.78c-0.71-7.66-0.58-15.4301-0.42-23.13c2.6-23.1,16.89-43.59,35.36-57.1
		c10.45-8.49,22.47-14.71,34.59-20.44c21.89-9.82,45.18-16.15,68.73-20.53C586.6,727.03,604.2,724.21,621.98,723.35 M452.24,871.74
		c5.67,14.13,14.65,26.82,25.39,37.55c26.29,27.51,60.3,46.02,94.79,61.23c62.58,26.52,129.82,41.44,197.53,46.34
		c26.99,1.85,54.05,0.91,81.07,1.11c80.65,0.08,161.29,0.02,241.9399,0.01c50.41,1.07,100.8401-5,149.9501-16.28
		c40.77-9.58,80.87-22.75,118.4399-41.38c30.72-15.45,60.49-34.65,82.3301-61.64c12.0699-15.45,22.0399-34.52,19.98-54.7
		c-1.9601,7.52-3.91,15.13-7.53,22.06c-7.84,16.53-20.61,30-34.03,42.15c-14.8199,12.95-31.49,23.64-48.71,33.1
		c-31.79,17.12-65.72,30-100.38,40.01c-45.63,12.85-92.66,20.95-140.03,23.41c-22.95,1.57-45.97,0.68-68.95,0.89
		c-87.6801,0.03-175.3701,0-263.05,0c-10,0.21-19.92-1.35-29.91-1.35c-34.93-2.27-69.63-7.65-103.72-15.56
		c-46.45-11.13-92.16-26.77-133.95-50.14c-21.91-12.52-42.86-27.32-59.71-46.27c-12.35-13.55-22.25-30.04-25.22-48.34
		C446.8,853.34,448.97,862.93,452.24,871.74z"/>
	<path fill="#F7C0D8" d="M452.24,871.74c-3.27-8.81-5.44-18.4-3.77-27.8c2.97,18.3,12.87,34.79,25.22,48.34
		c16.85,18.95,37.8,33.75,59.71,46.27c41.79,23.37,87.5,39.01,133.95,50.14c34.09,7.91,68.79,13.29,103.72,15.56
		c9.99,0,19.91,1.56,29.91,1.35c87.68,0,175.37,0.03,263.05,0c22.98-0.21,46,0.6801,68.95-0.89c47.37-2.46,94.4-10.56,140.03-23.41
		c34.66-10.01,68.59-22.89,100.38-40.01c17.22-9.46,33.89-20.15,48.71-33.1c13.42-12.15,26.1901-25.62,34.03-42.15
		c3.62-6.93,5.5699-14.54,7.53-22.06c2.0599,20.18-7.91,39.25-19.98,54.7c-21.8401,26.99-51.6101,46.19-82.3301,61.64
		c-37.5699,18.63-77.6699,31.8-118.4399,41.38c-49.11,11.28-99.54,17.35-149.9501,16.28c-80.65,0.01-161.29,0.07-241.9399-0.01
		c-27.02-0.2-54.08,0.7401-81.07-1.11c-67.71-4.9-134.95-19.82-197.53-46.34c-34.49-15.21-68.5-33.72-94.79-61.23
		C466.89,898.56,457.91,885.87,452.24,871.74z"/>
	<path fill="#5AA6C8" d="M1481.8,850.19c6.13,4.03,13.0199,6.7,19.2,10.67c14.72,8.78,28.13,20.2,37.6801,34.55
		c9.1799,13.89,13.96,30.91,11.8999,47.55c-0.9299,7.33,0.89,14.66,0.3201,22.0099c-0.59,14.78-6.09,28.8701-13.36,41.58
		c-10.05,16.39-23.13,30.83-38,42.98c-31.98,26.5499-69.75,45.11-108.48,59.59c-52.66,19.24-107.91,31.3101-163.7301,36.35
		c-3.4299,0.05-5.38,3.14-7.59,5.27c-24.4399,27.45-57.42,45.9401-91.7,58.23c-5,1.86-10.3101,2.92-15,5.54
		c-7.1801-6.21-14.7001-12.0601-22.86-16.9401c-9.2401-7.0299-19.62-12.34-29.9401-17.5599c-3.78-2.15-8.6799-2.3101-11.75-5.5701
		c-0.4299-2.5199,0.35-5.0199,0.6901-7.49c1.6499-13.8099,0.2-28.33-6.3301-40.7899c-1.78-3.6801-4.6699-7.02-4.6-11.3201
		c4.8101-0.45,9.4301-1.9299,14.01-3.4399c0.12-0.17,0.36-0.51,0.48-0.6801c4.17-0.7899,8.17-2.21,12.1-3.8099
		c21.0801-7.85,41.17-18.42,59.25-31.8401c6.53-4.3199,11.89-10.0499,17.79-15.13c4.86-4.23,8.8199-9.33,13.0599-14.1399
		c12.41-0.87,24.8-2.1901,37.1101-4.0701c6.4199-0.28,12.58-2.22,18.9099-3.1699c21.9601-3.4901,43.61-8.7001,65.0601-14.55
		c7.77-2,15.26-4.99,23.13-6.69c0.1699-0.16,0.52-0.47,0.7-0.63c8.0801-2.05,15.73-5.4,23.59-8.12
		c19.8501-7.32,39.1801-16.05,57.76-26.17c8.16-3.95,15.62-9.09,23.3501-13.78c8.3899-5.86,17.0499-11.41,24.6399-18.3
		c8.38-6.25,15.4701-13.97,22.7301-21.44c5.11-6.33,10.45-12.53,14.46-19.65c4.45-6.49,7.91-13.59,10.4-21.05
		c0.12,0.4,0.38,1.19,0.51,1.58c0.36-5.6,2.5399-10.84,3.47-16.33c1.36-6.88,0.9299-13.93,0.72-20.89
		C1481.5601,851.95,1481.72,850.78,1481.8,850.19z"/>
	<path fill="#D970AB" d="M1480.25,850.43c0.3101,0.53,0.92,1.58,1.23,2.11c0.21,6.96,0.64,14.01-0.72,20.89
		c-0.9301,5.49-3.11,10.73-3.47,16.33c-0.13-0.39-0.39-1.18-0.51-1.58c-2.49,7.46-5.9501,14.56-10.4,21.05
		c-4.01,7.12-9.35,13.32-14.46,19.65c-7.26,7.47-14.3501,15.19-22.7301,21.44c-7.59,6.89-16.25,12.44-24.6399,18.3
		c-7.7301,4.69-15.1901,9.83-23.3501,13.78c-18.58,10.12-37.9099,18.85-57.76,26.17c-7.86,2.72-15.5099,6.07-23.59,8.12
		c-0.1799,0.16-0.53,0.47-0.7,0.63c-7.87,1.7-15.36,4.69-23.13,6.69c-21.4501,5.85-43.1,11.0599-65.0601,14.55
		c-6.33,0.95-12.49,2.8899-18.9099,3.1699c-12.3101,1.88-24.7001,3.2001-37.1101,4.0701c-4.24,4.8099-8.2,9.9099-13.0599,14.1399
		c-5.9,5.0801-11.26,10.8101-17.79,15.13c-18.08,13.42-38.1699,23.9901-59.25,31.8401c-3.9299,1.6-7.9299,3.02-12.1,3.8099
		c-0.12,0.17-0.36,0.51-0.48,0.6801c-4.58,1.51-9.2,2.99-14.01,3.4399c-0.0699,4.3,2.8199,7.64,4.6,11.3201
		c6.53,12.46,7.98,26.98,6.3301,40.7899c-0.3401,2.4701-1.12,4.9701-0.6901,7.49c3.0701,3.26,7.97,3.42,11.75,5.5701
		c10.3201,5.22,20.7,10.53,29.9401,17.5599c8.1599,4.88,15.6799,10.7301,22.86,16.9401c5.45,4.66,10.4099,9.87,15.5399,14.87
		c25.0801,24.65,44.11,55.23,56.53,88.0599c2.28,8.89,6.54,17.1901,7.8101,26.3601c2.72,10.3199,5.3199,20.7699,5.5199,31.51
		c0.16-1.7401,0.3501-3.4601,0.5601-5.16c0.34,0.41,0.66,0.8099,1.02,1.2899c-1.6,7.16,0.48,14.3701,0.41,21.5801
		c0.0099,10.64,0.4199,21.3099-0.5801,31.9299c-3.2999,39.99-16.37,79.1101-37.97,112.9501c-19.84,31.33-46.95,57.96-78.3,77.6899
		c-27.2999,17.05-57.9199,28.6901-89.61,34.23c-11.24,1.8601-22.59,3-33.99,2.88c-13.65-0.01-27.37,0.38-40.93-1.4299
		c-18.74-2.78-37.42-6.92-55.03-14.01c-27.43-9.64-52.78-25.02-74.75-44.01c-28.35-24.6801-51.15-55.7-66.26-90.12
		c-12.02-29.17-20.11-60.41-19.69-92.13c0.09-11.3101-0.35-22.67,0.94-33.92C708.9,1333.89,725.25,1292.02,751,1257.03
		c24.63-33.28,57.41-60.64,95.04-78.05c0.9-0.45,1.81-0.88,2.73-1.29c-0.11-8.2599-2.29-16.3999-1.43-24.6799
		c-0.09-8.39,2.12-16.59,5.48-24.22c1.75-4.5601,4.88-8.4501,6.22-13.1801c-35.1-9.54-68.9-25.4-96.9-48.83
		c-7.99-7.2101-15.55-14.89-22.55-23.0701c-8.69,0.2101-17.14-2.33-25.82-2.35c-0.12-0.2-0.35-0.59-0.46-0.79
		c-19.94-2.9099-39.76-6.8199-59.28-11.87c-12.1-2.4399-23.72-6.7599-35.76-9.41c0.48-0.22,0.97-0.42,1.47-0.6
		c-8.24-1.14-15.77-4.9-23.68-7.25c-7.02-1.99-13.39-5.63-20.25-8.01c-21.24-8.58-41.89-18.69-61.46-30.62
		c-5.02-3.1-9.84-6.51-14.89-9.56c-10.3-7.47-20.72-14.96-29.51-24.23c-19.35-18.49-35.87-41.94-39.5-69.03
		c-0.22-6.29-0.55-12.65,0.35-18.9c2.24,5.11,3.16,10.68,5.44,15.78c2.98,7.02,6.54,13.81,10.67,20.23
		c9.33,13.4,20.28,25.7401,32.9,36.13c20.52,17.4,43.7,31.44,67.9,43.11c41.24,19.84,85.25,33.48,129.94,43.02
		c43.5099,8.94,87.88,14.15,132.33,13.84c82.68,0.06,165.36-0.04,248.05,0.02c23-0.2,46.02,0.36,69.02-0.42
		c44.63-1.84,89.0299-8.48,132.36-19.29c40.34-10.25,79.9399-24.09,116.9199-43.31c31.38-16.54,61.28-37.42,83.2001-65.67
		C1469.28,881.47,1477.5601,866.69,1480.25,850.43 M1027.55,1177.6c-6.3301,15.29-20.41,27.02-36.53,30.65
		c-6.52,1.8199-13.33,1.1801-19.99,1.28c-18.38,0.02-36.76-0.01-55.13,0.01c-17.47-0.3401-34.17-10.38-43.1-25.3201
		c-3.84-5.9299-5.61-12.8099-7.39-19.5499c-1.36,5.0399-0.58,10.34,0.35,15.3999c3.28,16.2401,14.69,30.5601,29.81,37.3301
		c8.82,4.28,18.8,5.2,28.48,4.88c18.66-0.0701,37.33,0.01,55.99-0.03c12.89-0.21,25.69-5.23,35.16-14
		c11.95-11.04,19.04-28.0601,16.41-44.3199C1030.4,1168.52,1029.51,1173.24,1027.55,1177.6 M1035.9301,1199
		c-3.75,4.88-7.92,9.45-12.85,13.1801c-7.28,6.3999-16.49,9.99-25.56,13.0299c-7.73,1.6001-15.63,2.6901-23.54,2.3
		c-17.27,0-34.54-0.01-51.81,0.01c-12.91,0.4399-26.06-2.15-37.5-8.24c-8.5-4.4-15.83-10.74-22.06-17.9401
		c-0.96-1.61-2.66-0.26-3.82,0.2201c-20.75,10.2-39.91,23.6899-56.39,39.9099c-28.22,27.3101-48.55,62.5701-58.55,100.52
		c-1.99,8.39-4.33,16.86-4.38,25.55c-0.24-0.02-0.72-0.0601-0.96-0.0801c-0.55,9.8201-1.43,19.63-1.15,29.5
		c-0.75,31.8,6.92,63.4701,20.3,92.2201c4.14,8.0699,7.76,16.62,13.7,23.58c-0.26,1.96,1.13,3.51,2.17,5.02
		c6.49,9.24,13.43,18.21,21.16,26.46c7.19,6.66,13.59,14.36,21.85,19.74l0.08,0.4c22.16,18.45,48.23,32.4301,76,40.21
		c-0.01,0.1901-0.04,0.5701-0.05,0.76c3.26,0.15,6.33,1.29,9.48,2.0701c12.46,2.75,25.09,5.2999,37.92,5.2899
		c12.02,0.28,24.0601,0.16,36.08-0.24c7.89-0.3099,15.51-2.6799,23.39-3.09c0-0.2,0-0.6,0-0.8c6.74-0.64,13.07-3.1499,19.56-4.9099
		c20.0699-6.05,38.96-15.67,56.47-27.13c15.4-9.92,28.5801-22.74,41.02-36.0801c24.02-27.0499,41.1901-60.25,49.12-95.5699
		c2.02-6.15,2.1901-12.67,3.5-18.96c0.8201-6.3,1.5-12.63,1.4401-18.9901c0.09-13.7,0.5-27.47-1.6101-41.0499
		c-1.6299-11-3.75-21.98-7.4099-32.5c-0.17-1.52-0.24-3.01-0.79-4.41c-6.09-16.5699-13.1-32.98-22.75-47.8099
		c-5.9399-8.54-11.62-17.3501-18.72-25c-20.8-24.9801-47.6801-44.62-77.21-58.0601
		C1040.0699,1197.17,1037.1899,1196.73,1035.9301,1199z"/>
	<path fill="#5AA6C8" d="M499.46,963.25c5.05,3.05,9.87,6.46,14.89,9.56c19.57,11.93,40.22,22.04,61.46,30.62
		c6.86,2.38,13.23,6.02,20.25,8.01c7.91,2.35,15.44,6.11,23.68,7.25c-0.5,0.18-0.99,0.38-1.47,0.6c12.04,2.65,23.66,6.97,35.76,9.41
		c19.52,5.05,39.34,8.9601,59.28,11.87c0.11,0.2001,0.34,0.5901,0.46,0.79c8.68,0.02,17.13,2.5601,25.82,2.35
		c7,8.1801,14.56,15.86,22.55,23.0701c28,23.4299,61.8,39.2899,96.9,48.83c-1.34,4.73-4.47,8.62-6.22,13.1801
		c-3.36,7.63-5.57,15.83-5.48,24.22c-0.86,8.28,1.3199,16.42,1.43,24.6799c-0.92,0.41-1.83,0.8401-2.73,1.29
		c-1.78-2.21-3.65-4.38-5.92-6.08c-9.78-7.09-18.8-15.28-26.44-24.64c-1.75-2.08-3.74-4.37-6.7-4.35
		c-46-5.4701-91.57-15.35-135.37-30.52c-36.18-12.38-71.39-28.37-102.88-50.23c-18.07-12.49-34.61-27.4301-47.9-44.98
		C508.9,1002.35,499.87,983.37,499.46,963.25z"/>
	<path fill="#F7C0D8" d="M1027.55,1177.6c1.96-4.36,2.85-9.08,4.0599-13.6699c2.63,16.2599-4.46,33.2799-16.41,44.3199
		c-9.47,8.77-22.27,13.79-35.16,14c-18.66,0.04-37.33-0.04-55.99,0.03c-9.68,0.3199-19.66-0.6-28.48-4.88
		c-15.12-6.77-26.53-21.09-29.81-37.3301c-0.93-5.0599-1.71-10.36-0.35-15.3999c1.78,6.74,3.55,13.62,7.39,19.5499
		c8.93,14.9401,25.63,24.98,43.1,25.3201c18.37-0.02,36.75,0.01,55.13-0.01c6.66-0.1,13.47,0.5399,19.99-1.28
		C1007.14,1204.62,1021.22,1192.89,1027.55,1177.6z"/>
	<path fill="#5AA6C8" d="M1035.9301,1199c1.2599-2.27,4.1399-1.83,6.13-0.89c29.5299,13.4401,56.4099,33.08,77.21,58.0601
		c0.15,6.23-1.26,12.3199-2.0701,18.46c6.9301,2.78,13.4801,6.41,20.3501,9.35c0.11-0.7,0.33-2.11,0.4399-2.8099
		c9.65,14.83,16.66,31.24,22.75,47.8099c0.55,1.4,0.62,2.89,0.79,4.41c-1.36-3.0701-2.6801-6.34-5.4-8.46
		c-11.47-9.01-23.9401-16.7201-37.11-22.9901c-3.9-1.7-7.53-4.6299-11.9-4.8199c-3.1,2.21-4.6801,5.91-7.38,8.55
		c-13.15,13.5399-31.77,21.7-50.71,21.63c-19.3301,0.13-38.66,0.08-58,0.0699c-10.3101,0.1-20.78-1.09-30.35-5.11
		c-7.94-3.46-15.89-7.6-21.63-14.25c-2.53-2.4401-4.55-5.79-7.95-7.05c-5.5,1.0701-10.08,4.65-15,7.14
		c-10.27,6.2001-20.6,12.4401-29.66,20.36c-4.54,4.16-9.93,7.3201-14.06,11.9401c-5.18,4.8199-9.47,10.47-14.5,15.4399
		c-3.19,3.24-5.34,7.3101-8.16,10.87c-23.79,31.24-38.47,69.2001-42.36,108.25c-1.11,11.3-0.9,22.6901-0.64,34.04
		c0.2,9.4301,2.21,18.6801,3.5,28c1.46,9.14,4.4301,17.9399,6.32,26.98c-8.2599-5.38-14.66-13.08-21.85-19.74
		c-7.73-8.25-14.67-17.22-21.16-26.46c-1.04-1.51-2.4301-3.0601-2.17-5.02c1.49-11.16,0.23-22.5,2.03-33.64
		c4.91-50.75,26.17-99.72,59.78-138.04c5.19-6.3999,11.81-11.4199,17.37-17.49c10.7-11.24,23.37-20.2899,36.26-28.83
		c8.55-5.63,17.69-10.28,26.72-15.0701c1.73-1,3.59-1.9399,4.87-3.5299c-0.06-5.4501-1.6-10.74-1.81-16.1801
		c-0.51-11.0699,1.83-22.09,5.59-32.46c17.27-0.02,34.54-0.01,51.81-0.01c7.91,0.39,15.81-0.7,23.54-2.3
		c9.07-3.0399,18.28-6.63,25.56-13.0299C1028.01,1208.45,1032.1801,1203.88,1035.9301,1199z"/>
	<path fill="#4FCAF4" d="M858.79,1201.5601c1.16-0.4801,2.86-1.8301,3.82-0.2201c6.23,7.2001,13.56,13.54,22.06,17.9401
		c11.44,6.09,24.59,8.6799,37.5,8.24c-3.76,10.37-6.1,21.39-5.59,32.46c0.21,5.4401,1.75,10.73,1.81,16.1801
		c-1.28,1.59-3.14,2.5299-4.87,3.5299c-9.03,4.79-18.17,9.4401-26.72,15.0701c-12.89,8.54-25.56,17.59-36.26,28.83
		c-5.56,6.0701-12.18,11.0901-17.37,17.49c-33.61,38.3201-54.87,87.29-59.78,138.04c-1.8,11.14-0.54,22.48-2.03,33.64
		c-5.94-6.96-9.56-15.51-13.7-23.58c-13.3799-28.75-21.05-60.42-20.3-92.2201c-0.28-9.87,0.6-19.6799,1.15-29.5
		c0.24,0.02,0.72,0.0601,0.96,0.0801c0.05-8.6901,2.39-17.16,4.38-25.55c10-37.95,30.33-73.21,58.55-100.52
		C818.88,1225.25,838.04,1211.76,858.79,1201.5601z"/>
	<path fill="#4FC9F3" d="M1119.27,1256.17c7.1,7.6499,12.78,16.46,18.72,25c-0.11,0.7-0.33,2.11-0.4399,2.8099
		c-6.87-2.9399-13.42-6.5699-20.3501-9.35C1118.01,1268.49,1119.42,1262.4,1119.27,1256.17z"/>
	<path fill="#4FCAF4" d="M1099.74,1305.67c2.7-2.64,4.28-6.3401,7.38-8.55c4.37,0.1901,8,3.12,11.9,4.8199
		c13.1699,6.27,25.64,13.9801,37.11,22.9901c2.72,2.12,4.04,5.3899,5.4,8.46c3.6599,10.52,5.78,21.5,7.4099,32.5
		c2.1101,13.58,1.7001,27.35,1.6101,41.0499c0.0599,6.3601-0.62,12.6901-1.4401,18.9901c-1.3099,6.2899-1.48,12.8099-3.5,18.96
		c-7.9299,35.3199-25.1,68.52-49.12,95.5699c-12.4399,13.3401-25.62,26.16-41.02,36.0801c-17.51,11.46-36.4,21.08-56.47,27.13
		c-6.49,1.76-12.82,4.2699-19.56,4.9099c0,0.2001,0,0.6001,0,0.8c-7.88,0.41-15.5,2.78-23.39,3.09c-12.02,0.4-24.06,0.52-36.08,0.24
		c-12.83,0.01-25.46-2.5399-37.92-5.2899c-3.15-0.78-6.22-1.92-9.48-2.0701c0.01-0.1899,0.04-0.5699,0.05-0.76
		c-27.77-7.7799-53.84-21.76-76-40.21l-0.08-0.4c-1.89-9.04-4.86-17.84-6.32-26.98c-1.29-9.3199-3.3-18.5699-3.5-28
		c-0.2599-11.35-0.47-22.74,0.64-34.04c3.89-39.0499,18.57-77.01,42.36-108.25c2.82-3.5599,4.97-7.63,8.16-10.87
		c5.03-4.97,9.32-10.62,14.5-15.4399c4.13-4.62,9.52-7.78,14.06-11.9401c9.06-7.9199,19.39-14.1599,29.66-20.36
		c4.92-2.49,9.5-6.0699,15-7.14c3.4,1.26,5.42,4.61,7.95,7.05c5.74,6.65,13.69,10.79,21.63,14.25c9.57,4.02,20.04,5.21,30.35,5.11
		c19.34,0.01,38.6699,0.0601,58-0.0699C1067.97,1327.37,1086.59,1319.21,1099.74,1305.67z"/>
	<path fill="#5AA6C8" d="M1185.11,1317.4399c4.39,2.63,7.4501,6.89,11.25,10.26c12.71,12.1101,23.61,26,33.27,40.64
		c36.6899,55.37,49.08,125.9401,34.3,190.63c-8.4301,38.05-26.01,74.0901-51.0701,103.97c-11.61,14.66-25.5599,27.29-40.16,38.9
		c-29.6399,22.4401-64.12,38.86-100.6699,46.0801c-47.1901,10.1799-97.25,5.6-142.16-11.88c-34.2-13.51-65.33-34.62-90.54-61.38
		c-10.95-12.53-21.63-25.39-30.23-39.6801c-6.08-10.2-11.92-20.59-16.46-31.58c-1.36-3.3101-3.2-6.51-3.37-10.15
		c21.97,18.99,47.32,34.37,74.75,44.01c-1.76-0.2-3.53-0.3-5.28-0.4c5.57,7.47,11.96,14.36,19.23,20.21
		c19.3701,18.4801,42.85,32.5,67.78,42.13c9.21,2.75,18.16,6.39,27.58,8.4801c10.42,2.5299,21.04,4.36,31.77,4.8199
		c12.23,1.28,24.61,1.37,36.8301-0.02c7.75-0.5699,15.6-0.7999,23.08-3.14c16.6899-3.1699,33.16-8.15,48.4-15.74
		c18.77-8.02,35.96-19.49,51.5-32.66c6.99-6.6899,13.5399-13.8199,20.62-20.4099c11.7899-12.9301,21.59-27.5901,29.98-42.92
		c3.83-8.84,8.39-17.37,11.6899-26.4299c6.0701-17.1901,10.3401-35.03,12.28-53.16c1.03-13.34,0.9501-26.73,0.23-40.0801
		c-3-33.0599-13.49-65.47-30.84-93.8099c-2.75-4.37-5.1899-9-8.85-12.6901c-0.36-0.48-0.6801-0.8799-1.02-1.2899
		c-0.21,1.7-0.4,3.4199-0.5601,5.16c-0.2-10.7401-2.7999-21.1901-5.5199-31.51C1191.65,1334.63,1187.39,1326.33,1185.11,1317.4399z"
		/>
	<path fill="#4FCAF4" d="M1200.02,1371.4399c3.66,3.6901,6.1,8.3201,8.85,12.6901c17.35,28.34,27.84,60.75,30.84,93.8099
		c0.7201,13.3501,0.8,26.7401-0.23,40.0801c-1.9399,18.13-6.21,35.97-12.28,53.16c-3.2999,9.0599-7.86,17.59-11.6899,26.4299
		c-8.39,15.33-18.1901,29.99-29.98,42.92c-7.0801,6.59-13.63,13.72-20.62,20.4099c-15.54,13.17-32.73,24.64-51.5,32.66
		c-15.24,7.59-31.7101,12.5701-48.4,15.74c-7.48,2.3401-15.33,2.5701-23.08,3.14c-12.2201,1.39-24.6,1.3-36.8301,0.02
		c-10.73-0.46-21.35-2.29-31.77-4.8199c-9.42-2.0901-18.37-5.7301-27.58-8.4801c-24.93-9.63-48.41-23.6499-67.78-42.13
		c-7.27-5.85-13.66-12.74-19.23-20.21c1.75,0.1,3.52,0.2001,5.28,0.4c17.61,7.09,36.29,11.23,55.03,14.01
		c13.56,1.8099,27.28,1.4199,40.93,1.4299c11.4,0.12,22.75-1.0199,33.99-2.88c31.6901-5.5399,62.3101-17.1799,89.61-34.23
		c31.3501-19.73,58.4601-46.36,78.3-77.6899c21.6-33.84,34.67-72.9601,37.97-112.9501c1-10.62,0.59-21.2899,0.5801-31.9299
		C1200.5,1385.8101,1198.42,1378.6,1200.02,1371.4399z"/>
</g>
</svg>
